<?xml version="1.0" standalone="no"?><!DOCTYPE svg PUBLIC "-//W3C//DTD SVG 1.1//EN" "http://www.w3.org/Graphics/SVG/1.1/DTD/svg11.dtd"><svg t="1565502804081" class="icon" viewBox="0 0 1024 1024" version="1.1" xmlns="http://www.w3.org/2000/svg" p-id="2249" xmlns:xlink="http://www.w3.org/1999/xlink" width="200" height="200"><defs><style type="text/css"></style></defs><path d="M510.6176 70.4256c-244.21888 0-442.2144 198.07744-442.2144 442.30656 0 244.18816 197.9904 442.2144 442.2144 442.2144 244.36224 0 442.31168-198.02624 442.31168-442.2144-0.01024-244.22912-197.9648-442.30656-442.3168-442.30656z m67.23072 771.27168c-27.25376 19.69664-61.32224 35.70688-96.83968 24.28416-21.2736-6.9632-40.24832-20.06528-58.9312-33.80736l-245.25824-200.3456v-59.60704l242.83136 195.30752c23.06048 14.44352 54.15424 23.56224 82.10432 12.7744 25.9072-10.22464 48.58368-28.14464 70.80448-47.2064l183.31136-158.15168-42.112-34.176-191.6672 157.55264c-19.38432 14.73536-41.66656 26.53696-66.97984 21.28896-23.30624-4.85888-41.34912-22.90176-61.37856-36.03456l-178.05824-144.97792c-13.5168-10.19904-27.25888-20.97152-39.41376-33.16736l-0.29696-39.63904 216.14592 171.84768c19.3536 12.15488 45.63968 23.99744 68.56192 11.12576l24.31488-15.75424 168.6016-139.33056c-8.448-9.5744-23.41376-19.2768-34.5088-17.85344-8.43776 0.95232-16.256 3.90656-24.12032 9.53856l-120.12032 99.41504c-10.46016 7.02976-28.32896 15.57504-41.48736 12.51328-32.90112-7.68-56.5248-35.95264-80.75264-54.9376L171.32032 394.496l253.93152-210.2016c62.9504-45.80352 127.67744-40.3456 185.39008 2.80576l235.85792 193.95072c0.14848 0.2304-0.09728 57.68704-0.34304 57.57952l-186.33728-151.936c-19.49184-15.9232-79.26784-80.42496-133.90336-59.47392-29.31712 11.23328-53.4016 32.53248-78.73024 52.21888L265.35424 431.73888c0.21504 0.13312 44.75904 37.3248 44.75904 37.3248l178.75456-149.29408c30.53568-22.59968 73.1392-30.6176 108.84608-13.90592 0 0 17.664 9.40544 24.77056 15.6672 8.7552 7.76192 224.01536 183.31648 224.01536 183.31648-0.34304 13.02528 0.55808 29.56288-1.03424 42.27584l-211.072-171.40224c-26.80832-17.12128-68.1472-17.47456-94.73536 1.27488-58.18368 46.33088-112.60416 92.06272-169.09312 141.21472 10.52672 14.08 26.7776 20.38784 44.53888 14.85824l12.45184-6.93248 116.54144-99.18976c16.384-10.14784 49.80224-15.4112 66.90816-4.7872l19.0208 12.50816 218.71104 178.00704v3.05152l-270.88896 225.9712z" fill="#272636" p-id="2250"></path></svg>